<mxfile host="app.diagrams.net" agent="Mozilla/5.0 (X11; Linux x86_64; rv:132.0) Gecko/20100101 Firefox/132.0" version="24.9.0">
  <diagram name="Strona-1" id="VJrYIUewzFAKzoS3vrFh">
    <mxGraphModel dx="1490" dy="1566" grid="1" gridSize="10" guides="1" tooltips="1" connect="1" arrows="1" fold="1" page="1" pageScale="1" pageWidth="2339" pageHeight="3300" math="0" shadow="0">
      <root>
        <mxCell id="0" />
        <mxCell id="1" parent="0" />
        <object placeholders="1" c4Name="Reports Handler" c4Type="Component" c4Technology="Go, fx, kafka-go" c4Description="Listens for messages of report requests" label="&lt;font style=&quot;font-size: 16px&quot;&gt;&lt;b&gt;%c4Name%&lt;/b&gt;&lt;/font&gt;&lt;div&gt;[%c4Type%: %c4Technology%]&lt;/div&gt;&lt;br&gt;&lt;div&gt;&lt;font style=&quot;font-size: 11px&quot;&gt;%c4Description%&lt;/font&gt;&lt;/div&gt;" id="EYxnrFi_tyVWAvCyeVDl-1">
          <mxCell style="rounded=1;whiteSpace=wrap;html=1;labelBackgroundColor=none;fillColor=#d5e8d4;align=center;arcSize=6;strokeColor=#82b366;metaEdit=1;resizable=0;points=[[0.25,0,0],[0.5,0,0],[0.75,0,0],[1,0.25,0],[1,0.5,0],[1,0.75,0],[0.75,1,0],[0.5,1,0],[0.25,1,0],[0,0.75,0],[0,0.5,0],[0,0.25,0]];fontColor=default;" vertex="1" parent="1">
            <mxGeometry x="260" y="420" width="240" height="120" as="geometry" />
          </mxCell>
        </object>
        <object placeholders="1" c4Name="Reports Service" c4Type="Component" c4Technology="Go, fx" c4Description="Performs logic related to entity transformations and scheduling" label="&lt;font style=&quot;font-size: 16px&quot;&gt;&lt;b&gt;%c4Name%&lt;/b&gt;&lt;/font&gt;&lt;div&gt;[%c4Type%: %c4Technology%]&lt;/div&gt;&lt;br&gt;&lt;div&gt;&lt;font style=&quot;font-size: 11px&quot;&gt;%c4Description%&lt;/font&gt;&lt;/div&gt;" id="EYxnrFi_tyVWAvCyeVDl-2">
          <mxCell style="rounded=1;whiteSpace=wrap;html=1;labelBackgroundColor=none;fillColor=#d5e8d4;align=center;arcSize=6;strokeColor=#82b366;metaEdit=1;resizable=0;points=[[0.25,0,0],[0.5,0,0],[0.75,0,0],[1,0.25,0],[1,0.5,0],[1,0.75,0],[0.75,1,0],[0.5,1,0],[0.25,1,0],[0,0.75,0],[0,0.5,0],[0,0.25,0]];fontColor=default;" vertex="1" parent="1">
            <mxGeometry x="270" y="610" width="240" height="120" as="geometry" />
          </mxCell>
        </object>
        <object placeholders="1" c4Type="Relationship" c4Description="Uses" label="&lt;div style=&quot;text-align: left&quot;&gt;&lt;div style=&quot;text-align: center&quot;&gt;&lt;b&gt;%c4Description%&lt;/b&gt;&lt;/div&gt;&lt;/div&gt;" id="EYxnrFi_tyVWAvCyeVDl-3">
          <mxCell style="endArrow=blockThin;html=1;fontSize=10;fontColor=default;strokeWidth=1;endFill=1;strokeColor=#82b366;elbow=vertical;metaEdit=1;endSize=14;startSize=14;jumpStyle=arc;jumpSize=16;rounded=0;edgeStyle=orthogonalEdgeStyle;exitX=0.5;exitY=1;exitDx=0;exitDy=0;exitPerimeter=0;entryX=0.463;entryY=0.011;entryDx=0;entryDy=0;entryPerimeter=0;fillColor=#d5e8d4;" edge="1" parent="1" source="EYxnrFi_tyVWAvCyeVDl-1" target="EYxnrFi_tyVWAvCyeVDl-2">
            <mxGeometry width="240" relative="1" as="geometry">
              <mxPoint x="330" y="440" as="sourcePoint" />
              <mxPoint x="570" y="440" as="targetPoint" />
            </mxGeometry>
          </mxCell>
        </object>
        <object placeholders="1" c4Name="Application Logs Repository" c4Type="Component" c4Technology="Go, fx, go-elasticsearch" c4Description="Handles inserting, fetching and updating application logs from ElasticSearch" label="&lt;font style=&quot;font-size: 16px&quot;&gt;&lt;b&gt;%c4Name%&lt;/b&gt;&lt;/font&gt;&lt;div&gt;[%c4Type%: %c4Technology%]&lt;/div&gt;&lt;br&gt;&lt;div&gt;&lt;font style=&quot;font-size: 11px&quot;&gt;%c4Description%&lt;/font&gt;&lt;/div&gt;" id="EYxnrFi_tyVWAvCyeVDl-4">
          <mxCell style="rounded=1;whiteSpace=wrap;html=1;labelBackgroundColor=none;fillColor=#d5e8d4;align=center;arcSize=6;strokeColor=#82b366;metaEdit=1;resizable=0;points=[[0.25,0,0],[0.5,0,0],[0.75,0,0],[1,0.25,0],[1,0.5,0],[1,0.75,0],[0.75,1,0],[0.5,1,0],[0.25,1,0],[0,0.75,0],[0,0.5,0],[0,0.25,0]];fontColor=default;" vertex="1" parent="1">
            <mxGeometry x="320" y="1380" width="240" height="120" as="geometry" />
          </mxCell>
        </object>
        <object placeholders="1" c4Name="Node Logs Repository" c4Type="Component" c4Technology="Go, fx, go-elasticsearch" c4Description="Handles inserting, fetching and updating node logs from ElasticSearch" label="&lt;font style=&quot;font-size: 16px&quot;&gt;&lt;b&gt;%c4Name%&lt;/b&gt;&lt;/font&gt;&lt;div&gt;[%c4Type%: %c4Technology%]&lt;/div&gt;&lt;br&gt;&lt;div&gt;&lt;font style=&quot;font-size: 11px&quot;&gt;%c4Description%&lt;/font&gt;&lt;/div&gt;" id="EYxnrFi_tyVWAvCyeVDl-5">
          <mxCell style="rounded=1;whiteSpace=wrap;html=1;labelBackgroundColor=none;fillColor=#d5e8d4;align=center;arcSize=6;strokeColor=#82b366;metaEdit=1;resizable=0;points=[[0.25,0,0],[0.5,0,0],[0.75,0,0],[1,0.25,0],[1,0.5,0],[1,0.75,0],[0.75,1,0],[0.5,1,0],[0.25,1,0],[0,0.75,0],[0,0.5,0],[0,0.25,0]];fontColor=default;" vertex="1" parent="1">
            <mxGeometry x="30" y="1380" width="240" height="120" as="geometry" />
          </mxCell>
        </object>
        <object placeholders="1" c4Name="Reports Repository" c4Type="Component" c4Technology="Go, fx, mongo-driver" c4Description="Handles inserting, fetching and updating reports" label="&lt;font style=&quot;font-size: 16px&quot;&gt;&lt;b&gt;%c4Name%&lt;/b&gt;&lt;/font&gt;&lt;div&gt;[%c4Type%: %c4Technology%]&lt;/div&gt;&lt;br&gt;&lt;div&gt;&lt;font style=&quot;font-size: 11px&quot;&gt;%c4Description%&lt;/font&gt;&lt;/div&gt;" id="EYxnrFi_tyVWAvCyeVDl-6">
          <mxCell style="rounded=1;whiteSpace=wrap;html=1;labelBackgroundColor=none;fillColor=#d5e8d4;align=center;arcSize=6;strokeColor=#82b366;metaEdit=1;resizable=0;points=[[0.25,0,0],[0.5,0,0],[0.75,0,0],[1,0.25,0],[1,0.5,0],[1,0.75,0],[0.75,1,0],[0.5,1,0],[0.25,1,0],[0,0.75,0],[0,0.5,0],[0,0.25,0]];fontColor=default;" vertex="1" parent="1">
            <mxGeometry x="650" y="630" width="240" height="120" as="geometry" />
          </mxCell>
        </object>
        <object placeholders="1" c4Name="Application Insights Generator" c4Type="Component" c4Technology="Go, fx" c4Description="Handles generation of insights from application logs and configurations " label="&lt;font style=&quot;font-size: 16px&quot;&gt;&lt;b&gt;%c4Name%&lt;/b&gt;&lt;/font&gt;&lt;div&gt;[%c4Type%: %c4Technology%]&lt;/div&gt;&lt;br&gt;&lt;div&gt;&lt;font style=&quot;font-size: 11px&quot;&gt;%c4Description%&lt;/font&gt;&lt;/div&gt;" id="EYxnrFi_tyVWAvCyeVDl-7">
          <mxCell style="rounded=1;whiteSpace=wrap;html=1;labelBackgroundColor=none;fillColor=#d5e8d4;align=center;arcSize=6;strokeColor=#82b366;metaEdit=1;resizable=0;points=[[0.25,0,0],[0.5,0,0],[0.75,0,0],[1,0.25,0],[1,0.5,0],[1,0.75,0],[0.75,1,0],[0.5,1,0],[0.25,1,0],[0,0.75,0],[0,0.5,0],[0,0.25,0]];fontColor=default;" vertex="1" parent="1">
            <mxGeometry x="320" y="820" width="240" height="120" as="geometry" />
          </mxCell>
        </object>
        <object placeholders="1" c4Name="Node Insights Generator" c4Type="Component" c4Technology="Go, fx" c4Description="Handles generation of insights from application logs and configurations " label="&lt;font style=&quot;font-size: 16px&quot;&gt;&lt;b&gt;%c4Name%&lt;/b&gt;&lt;/font&gt;&lt;div&gt;[%c4Type%: %c4Technology%]&lt;/div&gt;&lt;br&gt;&lt;div&gt;&lt;font style=&quot;font-size: 11px&quot;&gt;%c4Description%&lt;/font&gt;&lt;/div&gt;" id="EYxnrFi_tyVWAvCyeVDl-8">
          <mxCell style="rounded=1;whiteSpace=wrap;html=1;labelBackgroundColor=none;fillColor=#d5e8d4;align=center;arcSize=6;strokeColor=#82b366;metaEdit=1;resizable=0;points=[[0.25,0,0],[0.5,0,0],[0.75,0,0],[1,0.25,0],[1,0.5,0],[1,0.75,0],[0.75,1,0],[0.5,1,0],[0.25,1,0],[0,0.75,0],[0,0.5,0],[0,0.25,0]];fontColor=default;" vertex="1" parent="1">
            <mxGeometry x="20" y="820" width="240" height="120" as="geometry" />
          </mxCell>
        </object>
        <object placeholders="1" c4Name="Incident Merger" c4Type="Component" c4Technology="Go, fx" c4Description="Removes duplicated incidents" label="&lt;font style=&quot;font-size: 16px&quot;&gt;&lt;b&gt;%c4Name%&lt;/b&gt;&lt;/font&gt;&lt;div&gt;[%c4Type%: %c4Technology%]&lt;/div&gt;&lt;br&gt;&lt;div&gt;&lt;font style=&quot;font-size: 11px&quot;&gt;%c4Description%&lt;/font&gt;&lt;/div&gt;" id="EYxnrFi_tyVWAvCyeVDl-9">
          <mxCell style="rounded=1;whiteSpace=wrap;html=1;labelBackgroundColor=none;fillColor=#d5e8d4;align=center;arcSize=6;strokeColor=#82b366;metaEdit=1;resizable=0;points=[[0.25,0,0],[0.5,0,0],[0.75,0,0],[1,0.25,0],[1,0.5,0],[1,0.75,0],[0.75,1,0],[0.5,1,0],[0.25,1,0],[0,0.75,0],[0,0.5,0],[0,0.25,0]];fontColor=default;" vertex="1" parent="1">
            <mxGeometry x="630" y="820" width="240" height="120" as="geometry" />
          </mxCell>
        </object>
        <object placeholders="1" c4Name="Batch Poller" c4Type="Component" c4Technology="Go, fx" c4Description="Schedules, polls and rate limits batches of requests to the LLM" label="&lt;font style=&quot;font-size: 16px&quot;&gt;&lt;b&gt;%c4Name%&lt;/b&gt;&lt;/font&gt;&lt;div&gt;[%c4Type%: %c4Technology%]&lt;/div&gt;&lt;br&gt;&lt;div&gt;&lt;font style=&quot;font-size: 11px&quot;&gt;%c4Description%&lt;/font&gt;&lt;/div&gt;" id="EYxnrFi_tyVWAvCyeVDl-10">
          <mxCell style="rounded=1;whiteSpace=wrap;html=1;labelBackgroundColor=none;fillColor=#d5e8d4;align=center;arcSize=6;strokeColor=#82b366;metaEdit=1;resizable=0;points=[[0.25,0,0],[0.5,0,0],[0.75,0,0],[1,0.25,0],[1,0.5,0],[1,0.75,0],[0.75,1,0],[0.5,1,0],[0.25,1,0],[0,0.75,0],[0,0.5,0],[0,0.25,0]];fontColor=default;" vertex="1" parent="1">
            <mxGeometry x="320" y="1210" width="240" height="120" as="geometry" />
          </mxCell>
        </object>
        <object placeholders="1" c4Name="Scheduled Jobs Repository" c4Type="Component" c4Technology="Go, fx, mongo-driver" c4Description="Stores currently executing insight generation jobs" label="&lt;font style=&quot;font-size: 16px&quot;&gt;&lt;b&gt;%c4Name%&lt;/b&gt;&lt;/font&gt;&lt;div&gt;[%c4Type%: %c4Technology%]&lt;/div&gt;&lt;br&gt;&lt;div&gt;&lt;font style=&quot;font-size: 11px&quot;&gt;%c4Description%&lt;/font&gt;&lt;/div&gt;" id="EYxnrFi_tyVWAvCyeVDl-11">
          <mxCell style="rounded=1;whiteSpace=wrap;html=1;labelBackgroundColor=none;fillColor=#d5e8d4;align=center;arcSize=6;strokeColor=#82b366;metaEdit=1;resizable=0;points=[[0.25,0,0],[0.5,0,0],[0.75,0,0],[1,0.25,0],[1,0.5,0],[1,0.75,0],[0.75,1,0],[0.5,1,0],[0.25,1,0],[0,0.75,0],[0,0.5,0],[0,0.25,0]];fontColor=default;" vertex="1" parent="1">
            <mxGeometry x="610" y="1380" width="240" height="120" as="geometry" />
          </mxCell>
        </object>
        <object placeholders="1" c4Name="Report Requested Queue" c4Type="Container" c4Technology="Apache Kafka" c4Description="Queue with request for report generation" label="&lt;font style=&quot;font-size: 16px&quot;&gt;&lt;b&gt;%c4Name%&lt;/b&gt;&lt;/font&gt;&lt;div&gt;[%c4Type%:&amp;nbsp;%c4Technology%]&lt;/div&gt;&lt;br&gt;&lt;div&gt;&lt;font style=&quot;font-size: 11px&quot;&gt;&lt;font&gt;%c4Description%&lt;/font&gt;&lt;/font&gt;&lt;/div&gt;" id="EYxnrFi_tyVWAvCyeVDl-12">
          <mxCell style="shape=cylinder3;size=15;direction=south;whiteSpace=wrap;html=1;boundedLbl=1;rounded=0;labelBackgroundColor=none;fillColor=#d5e8d4;fontSize=12;align=center;strokeColor=#82b366;metaEdit=1;points=[[0.5,0,0],[1,0.25,0],[1,0.5,0],[1,0.75,0],[0.5,1,0],[0,0.75,0],[0,0.5,0],[0,0.25,0]];resizable=0;fontColor=default;" vertex="1" parent="1">
            <mxGeometry x="40" y="170" width="240" height="120" as="geometry" />
          </mxCell>
        </object>
        <object placeholders="1" c4Name="Report Generated Queue" c4Type="Container" c4Technology="Apache Kafka" c4Description="Queue with request for report generation" label="&lt;font style=&quot;font-size: 16px&quot;&gt;&lt;b&gt;%c4Name%&lt;/b&gt;&lt;/font&gt;&lt;div&gt;[%c4Type%:&amp;nbsp;%c4Technology%]&lt;/div&gt;&lt;br&gt;&lt;div&gt;&lt;font style=&quot;font-size: 11px&quot;&gt;&lt;font&gt;%c4Description%&lt;/font&gt;&lt;/font&gt;&lt;/div&gt;" id="EYxnrFi_tyVWAvCyeVDl-13">
          <mxCell style="shape=cylinder3;size=15;direction=south;whiteSpace=wrap;html=1;boundedLbl=1;rounded=0;labelBackgroundColor=none;fillColor=#d5e8d4;fontSize=12;align=center;strokeColor=#82b366;metaEdit=1;points=[[0.5,0,0],[1,0.25,0],[1,0.5,0],[1,0.75,0],[0.5,1,0],[0,0.75,0],[0,0.5,0],[0,0.25,0]];resizable=0;fontColor=default;" vertex="1" parent="1">
            <mxGeometry x="610" y="180" width="240" height="120" as="geometry" />
          </mxCell>
        </object>
        <object placeholders="1" c4Name="Report Request Failed Queue" c4Type="Container" c4Technology="Apache Kafka" c4Description="Queue with request for report generation" label="&lt;font style=&quot;font-size: 16px&quot;&gt;&lt;b&gt;%c4Name%&lt;/b&gt;&lt;/font&gt;&lt;div&gt;[%c4Type%:&amp;nbsp;%c4Technology%]&lt;/div&gt;&lt;br&gt;&lt;div&gt;&lt;font style=&quot;font-size: 11px&quot;&gt;&lt;font&gt;%c4Description%&lt;/font&gt;&lt;/font&gt;&lt;/div&gt;" id="EYxnrFi_tyVWAvCyeVDl-14">
          <mxCell style="shape=cylinder3;size=15;direction=south;whiteSpace=wrap;html=1;boundedLbl=1;rounded=0;labelBackgroundColor=none;fillColor=#d5e8d4;fontSize=12;align=center;strokeColor=#82b366;metaEdit=1;points=[[0.5,0,0],[1,0.25,0],[1,0.5,0],[1,0.75,0],[0.5,1,0],[0,0.75,0],[0,0.5,0],[0,0.25,0]];resizable=0;fontColor=default;" vertex="1" parent="1">
            <mxGeometry x="610" y="340" width="240" height="120" as="geometry" />
          </mxCell>
        </object>
        <object placeholders="1" c4Type="Relationship" c4Description="Subscribes for report requests" label="&lt;div style=&quot;text-align: left&quot;&gt;&lt;div style=&quot;text-align: center&quot;&gt;&lt;b&gt;%c4Description%&lt;/b&gt;&lt;/div&gt;&lt;/div&gt;" id="EYxnrFi_tyVWAvCyeVDl-17">
          <mxCell style="endArrow=blockThin;html=1;fontSize=10;fontColor=default;strokeWidth=1;endFill=1;strokeColor=#82b366;elbow=vertical;metaEdit=1;endSize=14;startSize=14;jumpStyle=arc;jumpSize=16;rounded=0;edgeStyle=orthogonalEdgeStyle;entryX=0.5;entryY=0;entryDx=0;entryDy=0;entryPerimeter=0;exitX=0.5;exitY=0;exitDx=0;exitDy=0;exitPerimeter=0;fillColor=#d5e8d4;" edge="1" parent="1" source="EYxnrFi_tyVWAvCyeVDl-1" target="EYxnrFi_tyVWAvCyeVDl-12">
            <mxGeometry width="240" relative="1" as="geometry">
              <mxPoint x="360" y="490" as="sourcePoint" />
              <mxPoint x="600" y="490" as="targetPoint" />
            </mxGeometry>
          </mxCell>
        </object>
        <object placeholders="1" c4Type="Relationship" c4Description="Publishes genereted report" label="&lt;div style=&quot;text-align: left&quot;&gt;&lt;div style=&quot;text-align: center&quot;&gt;&lt;b&gt;%c4Description%&lt;/b&gt;&lt;/div&gt;&lt;/div&gt;" id="EYxnrFi_tyVWAvCyeVDl-18">
          <mxCell style="endArrow=blockThin;html=1;fontSize=10;fontColor=default;strokeWidth=1;endFill=1;strokeColor=#82b366;elbow=vertical;metaEdit=1;endSize=14;startSize=14;jumpStyle=arc;jumpSize=16;rounded=0;edgeStyle=orthogonalEdgeStyle;entryX=0.5;entryY=1;entryDx=0;entryDy=0;entryPerimeter=0;exitX=1;exitY=0.5;exitDx=0;exitDy=0;exitPerimeter=0;fillColor=#d5e8d4;" edge="1" parent="1" source="EYxnrFi_tyVWAvCyeVDl-1" target="EYxnrFi_tyVWAvCyeVDl-13">
            <mxGeometry x="0.2292" width="240" relative="1" as="geometry">
              <mxPoint x="340" y="480" as="sourcePoint" />
              <mxPoint x="580" y="480" as="targetPoint" />
              <mxPoint as="offset" />
            </mxGeometry>
          </mxCell>
        </object>
        <object placeholders="1" c4Type="Relationship" c4Description="Publishes ReportRequestFailed message in case of an error during report generation" label="&lt;div style=&quot;text-align: left&quot;&gt;&lt;div style=&quot;text-align: center&quot;&gt;&lt;b&gt;%c4Description%&lt;/b&gt;&lt;/div&gt;&lt;/div&gt;" id="EYxnrFi_tyVWAvCyeVDl-19">
          <mxCell style="endArrow=blockThin;html=1;fontSize=10;fontColor=default;strokeWidth=1;endFill=1;strokeColor=#82b366;elbow=vertical;metaEdit=1;endSize=14;startSize=14;jumpStyle=arc;jumpSize=16;rounded=0;edgeStyle=orthogonalEdgeStyle;entryX=0.5;entryY=1;entryDx=0;entryDy=0;entryPerimeter=0;exitX=1;exitY=0.75;exitDx=0;exitDy=0;exitPerimeter=0;fillColor=#d5e8d4;" edge="1" parent="1" source="EYxnrFi_tyVWAvCyeVDl-1" target="EYxnrFi_tyVWAvCyeVDl-14">
            <mxGeometry x="-0.3636" y="-151" width="240" relative="1" as="geometry">
              <mxPoint x="340" y="480" as="sourcePoint" />
              <mxPoint x="580" y="480" as="targetPoint" />
              <Array as="points">
                <mxPoint x="570" y="510" />
                <mxPoint x="570" y="400" />
              </Array>
              <mxPoint x="-1" y="21" as="offset" />
            </mxGeometry>
          </mxCell>
        </object>
        <object placeholders="1" c4Type="Relationship" c4Description="Uses" label="&lt;div style=&quot;text-align: left&quot;&gt;&lt;div style=&quot;text-align: center&quot;&gt;&lt;b&gt;%c4Description%&lt;/b&gt;&lt;/div&gt;&lt;/div&gt;" id="EYxnrFi_tyVWAvCyeVDl-23">
          <mxCell style="endArrow=blockThin;html=1;fontSize=10;fontColor=default;strokeWidth=1;endFill=1;strokeColor=#82b366;elbow=vertical;metaEdit=1;endSize=14;startSize=14;jumpStyle=arc;jumpSize=16;rounded=0;edgeStyle=orthogonalEdgeStyle;exitX=0.18;exitY=0.997;exitDx=0;exitDy=0;exitPerimeter=0;entryX=0.138;entryY=0;entryDx=0;entryDy=0;entryPerimeter=0;fillColor=#d5e8d4;" edge="1" parent="1" source="EYxnrFi_tyVWAvCyeVDl-8" target="EYxnrFi_tyVWAvCyeVDl-5">
            <mxGeometry width="240" relative="1" as="geometry">
              <mxPoint x="300" y="1020" as="sourcePoint" />
              <mxPoint x="540" y="1020" as="targetPoint" />
            </mxGeometry>
          </mxCell>
        </object>
        <object placeholders="1" c4Type="Relationship" c4Description="Uses" label="&lt;div style=&quot;text-align: left&quot;&gt;&lt;div style=&quot;text-align: center&quot;&gt;&lt;b&gt;%c4Description%&lt;/b&gt;&lt;/div&gt;&lt;/div&gt;" id="EYxnrFi_tyVWAvCyeVDl-24">
          <mxCell style="endArrow=blockThin;html=1;fontSize=10;fontColor=default;strokeWidth=1;endFill=1;strokeColor=#82b366;elbow=vertical;metaEdit=1;endSize=14;startSize=14;jumpStyle=arc;jumpSize=16;rounded=0;edgeStyle=orthogonalEdgeStyle;exitX=0;exitY=0.5;exitDx=0;exitDy=0;exitPerimeter=0;fillColor=#d5e8d4;" edge="1" parent="1" source="EYxnrFi_tyVWAvCyeVDl-7" target="EYxnrFi_tyVWAvCyeVDl-4">
            <mxGeometry width="240" relative="1" as="geometry">
              <mxPoint x="300" y="1020" as="sourcePoint" />
              <mxPoint x="450" y="1240" as="targetPoint" />
              <Array as="points">
                <mxPoint x="270" y="880" />
                <mxPoint x="270" y="1350" />
                <mxPoint x="450" y="1350" />
              </Array>
            </mxGeometry>
          </mxCell>
        </object>
        <object placeholders="1" c4Type="Relationship" c4Description="Uses" label="&lt;div style=&quot;text-align: left&quot;&gt;&lt;div style=&quot;text-align: center&quot;&gt;&lt;b&gt;%c4Description%&lt;/b&gt;&lt;/div&gt;&lt;/div&gt;" id="EYxnrFi_tyVWAvCyeVDl-25">
          <mxCell style="endArrow=blockThin;html=1;fontSize=10;fontColor=default;strokeWidth=1;endFill=1;strokeColor=#82b366;elbow=vertical;metaEdit=1;endSize=14;startSize=14;jumpStyle=arc;jumpSize=16;rounded=0;edgeStyle=orthogonalEdgeStyle;entryX=0.542;entryY=0.022;entryDx=0;entryDy=0;entryPerimeter=0;exitX=1;exitY=0.5;exitDx=0;exitDy=0;exitPerimeter=0;fillColor=#d5e8d4;" edge="1" parent="1" source="EYxnrFi_tyVWAvCyeVDl-10" target="EYxnrFi_tyVWAvCyeVDl-11">
            <mxGeometry width="240" relative="1" as="geometry">
              <mxPoint x="300" y="1020" as="sourcePoint" />
              <mxPoint x="540" y="1020" as="targetPoint" />
            </mxGeometry>
          </mxCell>
        </object>
        <object placeholders="1" c4Type="Relationship" c4Description="Schedules merging jobs with" label="&lt;div style=&quot;text-align: left&quot;&gt;&lt;div style=&quot;text-align: center&quot;&gt;&lt;b&gt;%c4Description%&lt;/b&gt;&lt;/div&gt;&lt;/div&gt;" id="EYxnrFi_tyVWAvCyeVDl-26">
          <mxCell style="endArrow=blockThin;html=1;fontSize=10;fontColor=default;strokeWidth=1;endFill=1;strokeColor=#82b366;elbow=vertical;metaEdit=1;endSize=14;startSize=14;jumpStyle=arc;jumpSize=16;rounded=0;edgeStyle=orthogonalEdgeStyle;exitX=0.25;exitY=1;exitDx=0;exitDy=0;exitPerimeter=0;entryX=1;entryY=0.25;entryDx=0;entryDy=0;entryPerimeter=0;fillColor=#d5e8d4;" edge="1" parent="1" source="EYxnrFi_tyVWAvCyeVDl-9" target="EYxnrFi_tyVWAvCyeVDl-10">
            <mxGeometry x="-0.1854" y="50" width="240" relative="1" as="geometry">
              <mxPoint x="300" y="1020" as="sourcePoint" />
              <mxPoint x="540" y="1020" as="targetPoint" />
              <mxPoint y="-1" as="offset" />
            </mxGeometry>
          </mxCell>
        </object>
        <object placeholders="1" c4Type="Relationship" c4Description="Uses" label="&lt;div style=&quot;text-align: left&quot;&gt;&lt;div style=&quot;text-align: center&quot;&gt;&lt;b&gt;%c4Description%&lt;/b&gt;&lt;/div&gt;&lt;/div&gt;" id="EYxnrFi_tyVWAvCyeVDl-27">
          <mxCell style="endArrow=blockThin;html=1;fontSize=10;fontColor=default;strokeWidth=1;endFill=1;strokeColor=#82b366;elbow=vertical;metaEdit=1;endSize=14;startSize=14;jumpStyle=arc;jumpSize=16;rounded=0;edgeStyle=orthogonalEdgeStyle;exitX=0.5;exitY=1;exitDx=0;exitDy=0;exitPerimeter=0;entryX=0.5;entryY=0;entryDx=0;entryDy=0;entryPerimeter=0;fillColor=#d5e8d4;" edge="1" parent="1" source="EYxnrFi_tyVWAvCyeVDl-2" target="EYxnrFi_tyVWAvCyeVDl-8">
            <mxGeometry width="240" relative="1" as="geometry">
              <mxPoint x="430" y="870" as="sourcePoint" />
              <mxPoint x="670" y="870" as="targetPoint" />
              <Array as="points">
                <mxPoint x="340" y="730" />
                <mxPoint x="340" y="775" />
                <mxPoint x="140" y="775" />
              </Array>
            </mxGeometry>
          </mxCell>
        </object>
        <object placeholders="1" c4Type="Relationship" c4Description="Uses" label="&lt;div style=&quot;text-align: left&quot;&gt;&lt;div style=&quot;text-align: center&quot;&gt;&lt;b&gt;%c4Description%&lt;/b&gt;&lt;/div&gt;&lt;/div&gt;" id="EYxnrFi_tyVWAvCyeVDl-28">
          <mxCell style="endArrow=blockThin;html=1;fontSize=10;fontColor=default;strokeWidth=1;endFill=1;strokeColor=#82b366;elbow=vertical;metaEdit=1;endSize=14;startSize=14;jumpStyle=arc;jumpSize=16;rounded=0;edgeStyle=orthogonalEdgeStyle;exitX=0.631;exitY=1;exitDx=0;exitDy=0;exitPerimeter=0;entryX=0.422;entryY=0;entryDx=0;entryDy=0;entryPerimeter=0;fillColor=#d5e8d4;" edge="1" parent="1" source="EYxnrFi_tyVWAvCyeVDl-2" target="EYxnrFi_tyVWAvCyeVDl-7">
            <mxGeometry width="240" relative="1" as="geometry">
              <mxPoint x="430" y="870" as="sourcePoint" />
              <mxPoint x="670" y="870" as="targetPoint" />
            </mxGeometry>
          </mxCell>
        </object>
        <object placeholders="1" c4Type="Relationship" c4Description="Uses" label="&lt;div style=&quot;text-align: left&quot;&gt;&lt;div style=&quot;text-align: center&quot;&gt;&lt;b&gt;%c4Description%&lt;/b&gt;&lt;/div&gt;&lt;/div&gt;" id="EYxnrFi_tyVWAvCyeVDl-29">
          <mxCell style="endArrow=blockThin;html=1;fontSize=10;fontColor=default;strokeWidth=1;endFill=1;strokeColor=#82b366;elbow=vertical;metaEdit=1;endSize=14;startSize=14;jumpStyle=arc;jumpSize=16;rounded=0;edgeStyle=orthogonalEdgeStyle;exitX=0.874;exitY=1.028;exitDx=0;exitDy=0;exitPerimeter=0;entryX=0.172;entryY=-0.014;entryDx=0;entryDy=0;entryPerimeter=0;fillColor=#d5e8d4;" edge="1" parent="1" source="EYxnrFi_tyVWAvCyeVDl-2" target="EYxnrFi_tyVWAvCyeVDl-9">
            <mxGeometry width="240" relative="1" as="geometry">
              <mxPoint x="430" y="870" as="sourcePoint" />
              <mxPoint x="670" y="870" as="targetPoint" />
              <Array as="points">
                <mxPoint x="480" y="780" />
                <mxPoint x="671" y="780" />
              </Array>
            </mxGeometry>
          </mxCell>
        </object>
        <object placeholders="1" c4Name="Logs Storage" c4Type="Container" c4Technology="Elasticsearch" c4Description="Used to store application and node logs" label="&lt;font style=&quot;font-size: 16px&quot;&gt;&lt;b&gt;%c4Name%&lt;/b&gt;&lt;/font&gt;&lt;div&gt;[%c4Type%:&amp;nbsp;%c4Technology%]&lt;/div&gt;&lt;br&gt;&lt;div&gt;&lt;font style=&quot;font-size: 11px&quot;&gt;&lt;font&gt;%c4Description%&lt;/font&gt;&lt;/font&gt;&lt;/div&gt;" id="EYxnrFi_tyVWAvCyeVDl-30">
          <mxCell style="shape=cylinder3;size=15;whiteSpace=wrap;html=1;boundedLbl=1;rounded=0;labelBackgroundColor=none;fillColor=#d5e8d4;fontSize=12;align=center;strokeColor=#82b366;metaEdit=1;points=[[0.5,0,0],[1,0.25,0],[1,0.5,0],[1,0.75,0],[0.5,1,0],[0,0.75,0],[0,0.5,0],[0,0.25,0]];resizable=0;fontColor=default;" vertex="1" parent="1">
            <mxGeometry x="160" y="1560" width="240" height="120" as="geometry" />
          </mxCell>
        </object>
        <object placeholders="1" c4Name="Reports Database" c4Type="Container" c4Technology="MongoDB" c4Description="Used to store reports" label="&lt;font style=&quot;font-size: 16px&quot;&gt;&lt;b&gt;%c4Name%&lt;/b&gt;&lt;/font&gt;&lt;div&gt;[%c4Type%:&amp;nbsp;%c4Technology%]&lt;/div&gt;&lt;br&gt;&lt;div&gt;&lt;font style=&quot;font-size: 11px&quot;&gt;&lt;font&gt;%c4Description%&lt;/font&gt;&lt;/font&gt;&lt;/div&gt;" id="EYxnrFi_tyVWAvCyeVDl-32">
          <mxCell style="shape=cylinder3;size=15;whiteSpace=wrap;html=1;boundedLbl=1;rounded=0;labelBackgroundColor=none;fillColor=#d5e8d4;fontSize=12;align=center;strokeColor=#82b366;metaEdit=1;points=[[0.5,0,0],[1,0.25,0],[1,0.5,0],[1,0.75,0],[0.5,1,0],[0,0.75,0],[0,0.5,0],[0,0.25,0]];resizable=0;fontColor=default;" vertex="1" parent="1">
            <mxGeometry x="940" y="820" width="240" height="120" as="geometry" />
          </mxCell>
        </object>
        <object placeholders="1" c4Type="Relationship" c4Description="Uses" label="&lt;div style=&quot;text-align: left&quot;&gt;&lt;div style=&quot;text-align: center&quot;&gt;&lt;b&gt;%c4Description%&lt;/b&gt;&lt;/div&gt;&lt;/div&gt;" id="EYxnrFi_tyVWAvCyeVDl-33">
          <mxCell style="endArrow=blockThin;html=1;fontSize=10;fontColor=default;strokeWidth=1;endFill=1;strokeColor=#82b366;elbow=vertical;metaEdit=1;endSize=14;startSize=14;jumpStyle=arc;jumpSize=16;rounded=0;edgeStyle=orthogonalEdgeStyle;exitX=1.008;exitY=0.442;exitDx=0;exitDy=0;exitPerimeter=0;entryX=0;entryY=0.5;entryDx=0;entryDy=0;entryPerimeter=0;fillColor=#d5e8d4;" edge="1" parent="1" source="EYxnrFi_tyVWAvCyeVDl-2" target="EYxnrFi_tyVWAvCyeVDl-6">
            <mxGeometry width="240" relative="1" as="geometry">
              <mxPoint x="550" y="830" as="sourcePoint" />
              <mxPoint x="790" y="830" as="targetPoint" />
            </mxGeometry>
          </mxCell>
        </object>
        <object placeholders="1" c4Type="Relationship" c4Description="Saves, fetches and updates reports to " label="&lt;div style=&quot;text-align: left&quot;&gt;&lt;div style=&quot;text-align: center&quot;&gt;&lt;b&gt;%c4Description%&lt;/b&gt;&lt;/div&gt;&lt;/div&gt;" id="EYxnrFi_tyVWAvCyeVDl-34">
          <mxCell style="endArrow=blockThin;html=1;fontSize=10;fontColor=default;strokeWidth=1;endFill=1;strokeColor=#82b366;elbow=vertical;metaEdit=1;endSize=14;startSize=14;jumpStyle=arc;jumpSize=16;rounded=0;edgeStyle=orthogonalEdgeStyle;exitX=1;exitY=0.5;exitDx=0;exitDy=0;exitPerimeter=0;entryX=0.5;entryY=0;entryDx=0;entryDy=0;entryPerimeter=0;fillColor=#d5e8d4;" edge="1" parent="1" source="EYxnrFi_tyVWAvCyeVDl-6" target="EYxnrFi_tyVWAvCyeVDl-32">
            <mxGeometry width="240" relative="1" as="geometry">
              <mxPoint x="600" y="950" as="sourcePoint" />
              <mxPoint x="840" y="950" as="targetPoint" />
            </mxGeometry>
          </mxCell>
        </object>
        <object placeholders="1" c4Type="Relationship" c4Description="Reads logs from " label="&lt;div style=&quot;text-align: left&quot;&gt;&lt;div style=&quot;text-align: center&quot;&gt;&lt;b&gt;%c4Description%&lt;/b&gt;&lt;/div&gt;&lt;/div&gt;" id="EYxnrFi_tyVWAvCyeVDl-35">
          <mxCell style="endArrow=blockThin;html=1;fontSize=10;fontColor=default;strokeWidth=1;endFill=1;strokeColor=#82b366;elbow=vertical;metaEdit=1;endSize=14;startSize=14;jumpStyle=arc;jumpSize=16;rounded=0;edgeStyle=orthogonalEdgeStyle;exitX=0.5;exitY=1;exitDx=0;exitDy=0;exitPerimeter=0;entryX=0.291;entryY=0.041;entryDx=0;entryDy=0;entryPerimeter=0;fillColor=#d5e8d4;" edge="1" parent="1" source="EYxnrFi_tyVWAvCyeVDl-5" target="EYxnrFi_tyVWAvCyeVDl-30">
            <mxGeometry x="-0.0018" width="240" relative="1" as="geometry">
              <mxPoint x="270" y="1480" as="sourcePoint" />
              <mxPoint x="510" y="1480" as="targetPoint" />
              <mxPoint as="offset" />
            </mxGeometry>
          </mxCell>
        </object>
        <object placeholders="1" c4Type="Relationship" c4Description="Reads logs from" label="&lt;div style=&quot;text-align: left&quot;&gt;&lt;div style=&quot;text-align: center&quot;&gt;&lt;b&gt;%c4Description%&lt;/b&gt;&lt;/div&gt;&lt;/div&gt;" id="EYxnrFi_tyVWAvCyeVDl-36">
          <mxCell style="endArrow=blockThin;html=1;fontSize=10;fontColor=default;strokeWidth=1;endFill=1;strokeColor=#82b366;elbow=vertical;metaEdit=1;endSize=14;startSize=14;jumpStyle=arc;jumpSize=16;rounded=0;edgeStyle=orthogonalEdgeStyle;exitX=0.5;exitY=1;exitDx=0;exitDy=0;exitPerimeter=0;entryX=0.683;entryY=0.041;entryDx=0;entryDy=0;entryPerimeter=0;fillColor=#d5e8d4;" edge="1" parent="1" source="EYxnrFi_tyVWAvCyeVDl-4" target="EYxnrFi_tyVWAvCyeVDl-30">
            <mxGeometry width="240" relative="1" as="geometry">
              <mxPoint x="270" y="1480" as="sourcePoint" />
              <mxPoint x="510" y="1480" as="targetPoint" />
            </mxGeometry>
          </mxCell>
        </object>
        <object placeholders="1" c4Type="Relationship" c4Description="Writes and reads from" label="&lt;div style=&quot;text-align: left&quot;&gt;&lt;div style=&quot;text-align: center&quot;&gt;&lt;b&gt;%c4Description%&lt;/b&gt;&lt;/div&gt;&lt;/div&gt;" id="EYxnrFi_tyVWAvCyeVDl-37">
          <mxCell style="endArrow=blockThin;html=1;fontSize=10;fontColor=default;strokeWidth=1;endFill=1;strokeColor=#82b366;elbow=vertical;metaEdit=1;endSize=14;startSize=14;jumpStyle=arc;jumpSize=16;rounded=0;edgeStyle=orthogonalEdgeStyle;entryX=0.575;entryY=1.033;entryDx=0;entryDy=0;entryPerimeter=0;exitX=1.003;exitY=0.412;exitDx=0;exitDy=0;exitPerimeter=0;fillColor=#d5e8d4;" edge="1" parent="1" source="EYxnrFi_tyVWAvCyeVDl-11" target="EYxnrFi_tyVWAvCyeVDl-32">
            <mxGeometry x="0.2541" y="18" width="240" relative="1" as="geometry">
              <mxPoint x="870" y="1450" as="sourcePoint" />
              <mxPoint x="730" y="1560" as="targetPoint" />
              <Array as="points">
                <mxPoint x="870" y="1429" />
                <mxPoint x="1078" y="1430" />
              </Array>
              <mxPoint y="1" as="offset" />
            </mxGeometry>
          </mxCell>
        </object>
        <object placeholders="1" c4Name="Accuracy Filter" c4Type="Component" c4Technology="Go, fx" c4Description="Filters logs based on configured accuracy" label="&lt;font style=&quot;font-size: 16px&quot;&gt;&lt;b&gt;%c4Name%&lt;/b&gt;&lt;/font&gt;&lt;div&gt;[%c4Type%: %c4Technology%]&lt;/div&gt;&lt;br&gt;&lt;div&gt;&lt;font style=&quot;font-size: 11px&quot;&gt;%c4Description%&lt;/font&gt;&lt;/div&gt;" id="EYxnrFi_tyVWAvCyeVDl-38">
          <mxCell style="rounded=1;whiteSpace=wrap;html=1;labelBackgroundColor=none;fillColor=#d5e8d4;align=center;arcSize=6;strokeColor=#82b366;metaEdit=1;resizable=0;points=[[0.25,0,0],[0.5,0,0],[0.75,0,0],[1,0.25,0],[1,0.5,0],[1,0.75,0],[0.75,1,0],[0.5,1,0],[0.25,1,0],[0,0.75,0],[0,0.5,0],[0,0.25,0]];fontColor=default;" vertex="1" parent="1">
            <mxGeometry x="320" y="1020" width="240" height="120" as="geometry" />
          </mxCell>
        </object>
        <object placeholders="1" c4Type="Relationship" c4Description="Filters logs with" label="&lt;div style=&quot;text-align: left&quot;&gt;&lt;div style=&quot;text-align: center&quot;&gt;&lt;b&gt;%c4Description%&lt;/b&gt;&lt;/div&gt;&lt;/div&gt;" id="EYxnrFi_tyVWAvCyeVDl-39">
          <mxCell style="endArrow=blockThin;html=1;fontSize=10;fontColor=default;strokeWidth=1;endFill=1;strokeColor=#82b366;elbow=vertical;metaEdit=1;endSize=14;startSize=14;jumpStyle=arc;jumpSize=16;rounded=0;edgeStyle=orthogonalEdgeStyle;exitX=0.5;exitY=1;exitDx=0;exitDy=0;exitPerimeter=0;entryX=0;entryY=0.5;entryDx=0;entryDy=0;entryPerimeter=0;fillColor=#d5e8d4;" edge="1" parent="1" source="EYxnrFi_tyVWAvCyeVDl-8" target="EYxnrFi_tyVWAvCyeVDl-38">
            <mxGeometry width="240" relative="1" as="geometry">
              <mxPoint x="380" y="1130" as="sourcePoint" />
              <mxPoint x="620" y="1130" as="targetPoint" />
            </mxGeometry>
          </mxCell>
        </object>
        <object placeholders="1" c4Type="Relationship" c4Description="Filters logs with" label="&lt;div style=&quot;text-align: left&quot;&gt;&lt;div style=&quot;text-align: center&quot;&gt;&lt;b&gt;%c4Description%&lt;/b&gt;&lt;/div&gt;&lt;/div&gt;" id="EYxnrFi_tyVWAvCyeVDl-40">
          <mxCell style="endArrow=blockThin;html=1;fontSize=10;fontColor=default;strokeWidth=1;endFill=1;strokeColor=#82b366;elbow=vertical;metaEdit=1;endSize=14;startSize=14;jumpStyle=arc;jumpSize=16;rounded=0;edgeStyle=orthogonalEdgeStyle;exitX=0.5;exitY=1;exitDx=0;exitDy=0;exitPerimeter=0;fillColor=#d5e8d4;" edge="1" parent="1" source="EYxnrFi_tyVWAvCyeVDl-7">
            <mxGeometry width="240" relative="1" as="geometry">
              <mxPoint x="380" y="1130" as="sourcePoint" />
              <mxPoint x="440" y="1030" as="targetPoint" />
            </mxGeometry>
          </mxCell>
        </object>
        <object placeholders="1" c4Type="Relationship" c4Description="Filtered logs are used by" label="&lt;div style=&quot;text-align: left&quot;&gt;&lt;div style=&quot;text-align: center&quot;&gt;&lt;b&gt;%c4Description%&lt;/b&gt;&lt;/div&gt;&lt;/div&gt;" id="EYxnrFi_tyVWAvCyeVDl-41">
          <mxCell style="endArrow=blockThin;html=1;fontSize=10;fontColor=default;strokeWidth=1;endFill=1;strokeColor=#82b366;elbow=vertical;metaEdit=1;endSize=14;startSize=14;jumpStyle=arc;jumpSize=16;rounded=0;edgeStyle=orthogonalEdgeStyle;exitX=0.5;exitY=1;exitDx=0;exitDy=0;exitPerimeter=0;entryX=0.5;entryY=0;entryDx=0;entryDy=0;entryPerimeter=0;fillColor=#d5e8d4;" edge="1" parent="1" source="EYxnrFi_tyVWAvCyeVDl-38" target="EYxnrFi_tyVWAvCyeVDl-10">
            <mxGeometry width="240" relative="1" as="geometry">
              <mxPoint x="380" y="1120" as="sourcePoint" />
              <mxPoint x="620" y="1120" as="targetPoint" />
            </mxGeometry>
          </mxCell>
        </object>
      </root>
    </mxGraphModel>
  </diagram>
</mxfile>
